<?xml version="1.0" encoding="iso-8859-1"?>
<!-- Generator: Adobe Illustrator 19.0.0, SVG Export Plug-In . SVG Version: 6.00 Build 0)  -->
<svg version="1.1" id="Capa_1" xmlns="http://www.w3.org/2000/svg" xmlns:xlink="http://www.w3.org/1999/xlink" x="0px" y="0px"
	 viewBox="0 0 511.999 511.999" style="enable-background:new 0 0 511.999 511.999;" xml:space="preserve">
<g>
	<g>
		<path d="M271.001,122.882V73.174c5.895,1.819,12.59,3.096,19.804,3.096c4.938,0,10.12-0.598,15.443-2.023
			c31.89-8.544,44.386-40.266,44.901-41.611l3.9-10.17l-8.462-6.856c-1.12-0.908-27.801-22.127-59.692-13.587
			C273.224,5.686,263.127,13.61,256,21.573c-7.126-7.963-17.224-15.886-30.896-19.55c-31.884-8.543-58.571,12.676-59.691,13.586
			l-8.462,6.856l3.9,10.17c0.516,1.346,13.012,33.066,44.9,41.611c5.325,1.427,10.505,2.023,15.444,2.023
			c7.213,0,13.909-1.277,19.804-3.096v49.708c-100.455,7.684-179.844,91.882-179.844,194.274
			c0,107.438,87.406,194.844,194.843,194.844c107.439,0,194.845-87.406,194.845-194.844
			C450.845,214.764,371.457,130.566,271.001,122.882z M294.661,31.001c8.002-2.144,15.795-0.511,21.809,1.822
			c-4.027,5.004-9.954,10.293-17.986,12.444c-8,2.145-15.794,0.513-21.809-1.821C280.702,38.442,286.629,33.153,294.661,31.001z
			 M213.517,45.268c-8-2.143-13.934-7.453-17.976-12.481c5.99-2.32,13.772-3.938,21.799-1.785
			c8.001,2.144,13.934,7.454,17.977,12.482C229.326,45.804,221.549,47.422,213.517,45.268z M390.277,221.636
			c0.299,0.42,0.59,0.846,0.885,1.268l-0.912,0.151C390.172,222.584,390.196,222.094,390.277,221.636z M253.102,152.348
			c0.965-0.017,1.929-0.037,2.898-0.037c20.357,0,39.86,3.719,57.876,10.497c-2.751,6.198-7.272,13.496-14.352,17.852
			c-7.553,4.649-17.009,5.242-28.908,1.818c-8.569-2.466-16.346-10.607-18.49-19.359
			C251.134,159.074,251.464,155.469,253.102,152.348z M144.439,195.914c11.857,2.333,21.561,8.325,25.003,15.765
			c0.9,1.948,3.642,7.876-3.329,17.819c-25.435,36.286-13.411,65.963,4.613,80.351c9.676,7.723,21.753,12.011,34.008,12.073
			c0.091,0.001,0.18,0.001,0.271,0.001c13.493,0,25.609-5.178,34.14-14.595c9.283-10.25,21.386-1.045,22.735,0.037
			c2.19,1.758,12.716,11.091,4.826,22.219c-25.085,35.383-11.224,72.699-4.099,87.102c3.391,6.854,1.206,11.698-1.695,13.764
			c-3.658,2.602-8.656,1.301-13.385-3.474c-1.015-1.229-3.014-5.776-4.477-9.103c-5.259-11.959-13.206-30.031-32.328-45.779
			c-4.67-3.847-9.642-8.052-14.904-12.503c-12.958-10.961-26.357-22.295-37.176-29.86c-14.771-10.33-30.12-16.911-43.661-22.717
			c-8.08-3.465-15.819-6.786-22.533-10.526C97.422,256.909,116.486,221.656,144.439,195.914z M256,481.999
			c-86.728,0-158.024-67.326-164.379-152.458c3.769,1.706,7.614,3.364,11.539,5.047c12.808,5.491,26.05,11.169,38.29,19.729
			c9.688,6.775,22.553,17.657,34.995,28.181c5.34,4.518,10.384,8.784,15.206,12.755c13.606,11.207,19.335,24.232,23.938,34.699
			c3.133,7.126,5.84,13.28,10.513,18.025c9.701,9.85,20.512,13.816,30.488,13.816c8.152,0,15.746-2.649,21.721-6.901
			c15.967-11.366,20.567-32.547,11.188-51.507c-14.221-28.747-3.562-49.053,1.682-56.448c16.175-22.812,6.95-48.944-10.521-62.967
			c-17.504-14.051-45.023-17.457-63.751,3.22c-5.364,5.925-17.683,7.022-27.466-0.787c-10.831-8.646-10.38-23.11,1.237-39.684
			c10.886-15.531,13.014-32.448,5.991-47.634c-4.629-10.009-12.922-18.394-23.57-24.364c14.871-8.689,31.216-15.114,48.564-18.804
			c-0.287,4.668,0.131,9.482,1.321,14.34c4.688,19.133,20.495,35.631,39.335,41.051c7.804,2.246,15.249,3.367,22.312,3.366
			c11.315,0,21.646-2.879,30.871-8.623c12.916-8.043,20.756-19.996,25.409-30.137c19.108,11.531,35.695,26.83,48.733,44.859
			c-1.479,0.837-3.949,1.88-7.078,2.54c-3.549,0.749-7.545,1.179-11.776,1.634c-9.513,1.022-20.294,2.182-30.48,7.512
			c-18.921,9.897-28.235,36.79-19.935,57.548c5.696,14.241,18.731,23.3,34.87,24.231c10.104,0.584,14.75,2.822,17.361,15.181
			l0.16,0.681c0.416,1.597,9.176,34.108,35.304,50.669C383.129,440.171,324.36,481.999,256,481.999z M401.857,322.742
			c-5.251-24.101-20.35-37.041-44.883-38.456c-3.07-0.178-7.079-1.263-8.743-5.422c-2.58-6.451,0.608-17.013,5.986-19.825
			c5.145-2.692,12.254-3.457,19.781-4.266c4.783-0.515,9.73-1.047,14.757-2.106c6.234-1.314,11.679-3.38,16.214-6.044
			c10.17,21.395,15.873,45.31,15.873,70.533c0.001,11.288-1.142,22.313-3.314,32.97C407.054,339.713,402.42,324.676,401.857,322.742
			z"/>
	</g>
</g>
<g>
</g>
<g>
</g>
<g>
</g>
<g>
</g>
<g>
</g>
<g>
</g>
<g>
</g>
<g>
</g>
<g>
</g>
<g>
</g>
<g>
</g>
<g>
</g>
<g>
</g>
<g>
</g>
<g>
</g>
</svg>
