<?xml version="1.0" encoding="UTF-8" standalone="no"?>
<svg width="227px" height="190px" viewBox="0 0 227 190" version="1.1" xmlns="http://www.w3.org/2000/svg" xmlns:xlink="http://www.w3.org/1999/xlink">
    <!-- Generator: Sketch 49.1 (51147) - http://www.bohemiancoding.com/sketch -->
    <title>WRlogovector2</title>
    <desc>Created with Sketch.</desc>
    <defs></defs>
    <g id="FINAL" stroke="none" stroke-width="1" fill="none" fill-rule="evenodd">
        <g id="WooRides-Website-V4" transform="translate(-121.000000, -920.000000)">
            <g id="WRlogovector2" transform="translate(121.000000, 920.000000)">
                <path d="M111.217611,110.844516 C110.032155,110.905169 109.976066,111.493498 109.778995,111.931713 C104.238277,124.259334 98.7445522,136.608183 93.1341011,148.902445 C91.994123,151.399812 92.2184804,152.305051 95.2291142,152.286855 C104.59452,152.227719 113.964473,152.261078 123.325331,152.53553 C126.913534,152.640156 126.783164,151.393747 125.720498,148.715939 C122.41729,140.382285 119.299025,131.977365 116.104964,123.601254 C114.463214,119.297959 112.810852,115.000729 111.217611,110.844516 M173.737531,107.102257 C173.434345,106.996115 173.103873,106.777766 172.771884,106.77625 C155.347803,106.721663 137.925238,106.717114 120.501157,106.618553 C117.422306,106.601874 118.259099,108.072697 118.907916,109.81494 C123.628517,122.465536 128.336991,135.119164 132.968152,147.801602 C133.886805,150.32323 134.544718,150.885782 136.64731,148.561275 C148.429106,135.548281 160.360978,122.673271 172.215539,109.726994 C172.865872,109.01736 173.980079,108.513944 173.737531,107.102257 M167.543447,150.579487 C167.641983,166.887429 179.005382,178.355301 193.071682,178.491769 C207.031866,178.625204 218.784859,167.116392 219.001637,153.104147 C219.219931,138.869005 207.817117,127.191882 193.535556,126.865875 C190.444578,126.796125 189.304599,127.378389 190.500667,130.764315 C192.665413,136.885668 194.496654,143.129843 196.330928,149.363404 C197.058573,151.839543 197.308701,154.611362 194.110093,155.505987 C190.903904,156.403644 190.253571,153.562074 189.538052,151.40891 C187.446071,145.119246 185.384409,138.815934 183.544072,132.450454 C182.701215,129.531552 181.602167,129.387503 179.279765,131.019055 C171.71983,136.327665 167.643498,143.437655 167.543447,150.579487 M45.493019,159.035962 L45.493019,159.346806 C41.9821288,159.346806 38.4697227,159.272507 34.9618643,159.371067 C32.2635117,159.446883 29.654599,159.137555 29.5939618,155.839575 C29.5333247,152.532498 31.9481986,151.631808 34.9376095,151.65152 C41.9578739,151.693977 48.9826862,151.516568 56.0014347,151.656069 C58.9741703,151.715205 59.6563381,150.858489 58.6330864,148.060892 C54.9129981,137.877337 47.8836381,131.484563 37.0962915,130.132012 C26.1558362,128.759749 17.3452603,133.05243 11.633242,142.467215 C5.99550425,151.756146 6.32749258,161.402926 12.4260726,170.402241 C18.1426386,178.839004 26.498436,182.754123 36.6036148,181.622954 C47.4925286,180.403839 55.0327565,174.378013 58.6815962,163.883613 C60.2369387,159.413524 59.8397655,158.972277 55.2434705,159.028381 C51.99332,159.069321 48.7431695,159.035962 45.493019,159.035962 M143.832811,100.500232 C152.558495,100.500232 161.285695,100.433514 170.011379,100.544205 C172.467183,100.574531 173.069006,100.008947 172.582393,97.4387971 C170.579852,86.8048971 170.490412,86.6729779 158.608565,86.7594078 C156.686368,86.7730546 154.074423,87.9679089 154.236628,83.9436153 C154.353354,81.0307789 154.846031,79.4917217 158.065863,80.1513176 C158.440297,80.2286496 158.84505,80.1634481 159.236159,80.1649644 C174.024041,80.2195517 175.838607,81.5448089 180.15294,95.692005 C182.276755,102.659461 184.356609,109.640564 186.350055,116.645928 C186.983713,118.876424 187.876595,119.598189 190.44761,119.305541 C207.808022,117.32372 223.993589,130.356426 226.667687,148.223137 C229.200803,165.145186 216.953618,182.370496 200.110137,185.577497 C183.350033,188.769335 167.535868,179.962592 161.628294,164.148968 C155.884442,148.776591 162.387775,131.645292 177.155949,123.240372 C179.661779,121.813522 180.199933,118.012126 178.092793,115.907484 C176.596572,114.413916 176.102379,116.32447 175.477816,116.974968 C165.92292,126.947756 156.393794,136.987261 147.927334,147.881967 C141.69232,155.90326 134.787266,159.872967 124.119678,159.363486 C106.450016,158.515867 88.7045583,159.307382 70.9924508,159.354388 C68.870151,159.360453 67.4557898,159.427171 66.9600812,162.200507 C64.2859835,177.134669 50.8018003,189.177223 36.2306964,189.949026 C20.0921225,190.80271 5.96518569,180.863281 1.36737482,165.418122 C-3.95959762,147.521085 6.79743038,128.02737 24.6080733,123.301024 C43.6162996,118.257769 62.814017,129.648308 66.7630105,148.544596 C67.302681,151.128392 68.2486204,151.697009 70.5558634,151.589351 C74.9672151,151.384649 80.0986327,152.723553 83.6004274,150.885782 C86.9763999,149.113213 87.5024271,143.580188 89.2775793,139.704493 C94.9107692,127.404166 100.393882,115.035604 105.94976,102.700402 C108.36615,97.3356879 106.234754,93.4827376 100.522736,93.5069986 C97.5636439,93.5191291 97.5742554,92.0392081 97.4681405,89.8693648 C97.349898,87.4538789 98.1457605,86.7245326 100.551539,86.7669893 C108.364634,86.9004248 116.180761,86.8079298 123.996888,86.8230929 C125.376382,86.8261255 127.089382,86.4364332 127.20914,88.6199233 C127.315255,90.5820317 125.63409,90.8716474 124.318264,91.194622 C121.668422,91.8466364 118.920043,92.1286705 116.300519,92.8701474 C115.066553,93.2173829 112.418226,92.7003204 113.106458,95.0748658 C113.724957,97.2098339 113.223184,100.594244 117.261618,100.53814 C126.116156,100.416835 134.975241,100.500232 143.832811,100.500232" id="Fill-1" fill="#FFFFFF"></path>
                <path d="M46.318671,59.9222665 C46.8231042,59.8358761 47.3290522,59.7494856 47.8350002,59.6630952 C47.8350002,49.9767575 47.8410595,40.2919355 47.828941,30.6071134 C47.8274262,29.0717887 47.2124115,28.414009 45.6491231,29.2006166 C42.1771685,30.9496439 38.6946102,32.6729057 35.2150816,34.4037455 C34.1183559,34.9478537 33.660882,35.6920239 34.2940744,36.9014899 C38.3098474,44.5705353 42.311987,52.2471587 46.318671,59.9222665 Z M53.5761468,60.2602501 C53.8427541,60.2117502 54.2138836,60.2511564 54.2941688,60.1147504 C60.315556,50.0873979 66.3081617,40.0403423 72.3219749,30.0069273 C73.3156931,28.3473216 72.7961118,27.6516513 70.9722753,27.5622296 C65.9127952,27.3182145 60.8533151,27.031762 55.7923202,26.7892626 C53.3307469,26.6710441 53.6427986,28.4958525 53.6140172,30.0296616 C53.4428431,39.1324849 53.2701543,48.2337927 53.1368506,57.3351004 C53.1232173,58.3111607 52.6566545,59.4069552 53.5761468,60.2602501 Z M31.7158603,46.8000146 C31.1947642,53.3459844 30.5570273,59.8858916 30.2101348,66.440955 C30.0586534,69.2872924 29.326998,70.0754156 26.4897507,68.9902306 C23.3465108,67.7883426 20.0336117,67.0229537 16.7676719,66.1681431 C14.734791,65.6346443 13.8592283,64.7343651 14.0182838,62.3654485 C14.8741539,49.6524145 15.5452167,36.9257399 16.2026461,24.1990653 C16.2905054,22.4924753 16.840383,21.2617906 18.1734197,20.2099492 C26.2413211,13.8564634 34.2910448,7.47872772 42.3013833,1.05400774 C43.4147719,0.161306616 44.5190715,-0.0705834897 45.8854341,0.0173225633 C61.8364297,1.04491401 77.7859104,2.08463043 93.7459948,2.97884718 C96.6438348,3.14101869 96.3575348,3.98976679 95.0578241,5.8918719 C80.2853541,27.4652298 67.1004097,50.026773 53.7882208,72.5064727 C52.8732729,74.0493755 52.1446472,75.9954336 49.9678589,75.9999805 C47.5320374,76.0075586 46.9761005,73.806876 46.0899341,72.1215048 C41.6257761,63.6279613 37.1888847,55.1192616 32.7429045,46.6151088 L31.7158603,46.8000146 Z" id="Fill-3" fill="#03193B"></path>
                <path d="M15.0821154,71 C17.4075093,71.695797 19.4081104,72.3097356 21.4163358,72.8933562 C29.9432882,75.3733647 38.4427933,77.9579703 47.0185408,80.2666824 C50.6705528,81.2505 52.5994861,83.4242972 53.2353479,86.9487593 C53.6043612,88.9952211 53.8559612,91.0613896 54.1609309,93.1184628 C56.1066375,106.209755 64.380465,114.713941 75.0803264,121.353573 C78.6194996,123.550108 82.3569031,125.475298 86.1476763,127.209485 C88.6347041,128.344893 88.1863987,129.645533 87.2821635,131.526762 C86.4297733,133.29733 85.9860424,134.738949 83.3526291,133.586867 C61.8263439,124.154951 40.2436393,114.845824 18.6609347,105.539728 C16.8753372,104.769652 16.1861057,103.655467 16.071742,101.695412 C15.5380451,92.4757221 14.8152669,83.2666439 14.2190512,74.0499861 C14.1489082,72.9630875 13.4200306,71.4411262 15.0821154,71" id="Fill-5" fill="#03193B"></path>
            </g>
        </g>
    </g>
</svg>