<?xml version="1.0" encoding="UTF-8" standalone="no"?>
<svg width="127px" height="63px" viewBox="0 0 127 63" version="1.1" xmlns="http://www.w3.org/2000/svg" xmlns:xlink="http://www.w3.org/1999/xlink">
    <!-- Generator: Sketch 49.1 (51147) - http://www.bohemiancoding.com/sketch -->
    <title>WRlogovector (1)</title>
    <desc>Created with Sketch.</desc>
    <defs></defs>
    <g id="FINAL" stroke="none" stroke-width="1" fill="none" fill-rule="evenodd">
        <g id="WooRides-Website-V4" transform="translate(-29.000000, -76.000000)">
            <g id="WRlogovector-(1)" transform="translate(29.000000, 76.000000)">
                <path d="M62.9469983,27.5709268 C62.6597733,27.5858142 62.6461833,27.7302223 62.5984349,27.837784 C61.2559701,30.8636546 59.9248915,33.8947359 58.5655311,36.9124184 C58.2893249,37.5254084 58.3436847,37.7476034 59.0731334,37.7431371 C61.3422846,37.7286219 63.6125376,37.73681 65.8805869,37.8041756 C66.7499752,37.8298564 66.7183878,37.5239197 66.4609137,36.8666396 C65.6605769,34.8211063 64.9050502,32.7580804 64.1311588,30.702126 C63.7333778,29.6458627 63.3330258,28.5910881 62.9469983,27.5709268 M78.0949964,26.6523722 C78.0215373,26.6263192 77.9414669,26.5727244 77.8610292,26.5723522 C73.6393356,26.5589535 69.4180092,26.557837 65.1963155,26.5336449 C64.4503385,26.5295509 64.6530856,26.8905711 64.810288,27.3182126 C65.954046,30.4233588 67.0948656,33.5292494 68.2169531,36.6422115 C68.4395342,37.2611565 68.5989404,37.3992374 69.1083791,36.8286766 C71.9629992,33.634578 74.8539815,30.4743483 77.7262318,27.2966258 C77.8838015,27.1224429 78.1537637,26.9988772 78.0949964,26.6523722 M76.5942273,37.3240559 C76.6181015,41.3269143 79.371348,44.1417556 82.7794823,44.1752523 C86.1619059,44.2080047 89.0095474,41.3831144 89.0620706,37.9437453 C89.1149612,34.4496649 86.352165,31.583462 82.8918747,31.503442 C82.1429593,31.4863215 81.8667532,31.6292408 82.1565493,32.4603318 C82.6810471,33.9628459 83.12474,35.495507 83.5691675,37.0255629 C83.7454693,37.6333423 83.806073,38.313698 83.0310797,38.5332876 C82.2542499,38.7536216 82.0966801,38.0561454 81.9233167,37.5276416 C81.416449,35.9838148 80.9169272,34.4366384 80.4710305,32.8742024 C80.2668143,32.1577447 80.0005251,32.122387 79.4378285,32.522859 C77.6061262,33.8258815 76.6184688,35.5710608 76.5942273,37.3240559 M47.0225376,39.3997362 L47.0225376,39.4760343 C46.1718814,39.4760343 45.3208579,39.4577972 44.4709363,39.4819892 C43.8171504,39.5005985 43.185035,39.4246726 43.1703432,38.6151685 C43.1556514,37.8034312 43.740753,37.5823529 44.4650596,37.5871913 C46.1660047,37.5976125 47.8680517,37.5540667 49.5686296,37.5883078 C50.2888959,37.6028231 50.4541788,37.3925381 50.2062544,36.7058553 C49.3049114,34.2062554 47.6017625,32.63712 44.9880883,32.3051303 C42.3373171,31.9683021 40.2025961,33.0219601 38.8186269,35.3328618 C37.4526552,37.6128721 37.5330929,39.9807182 39.0107224,42.189641 C40.3957935,44.2604829 42.4203259,45.2214666 44.8687172,44.943816 C47.5070003,44.6445786 49.3339278,43.1655122 50.2180079,40.5896142 C50.594853,39.4924104 50.4986216,39.3841044 49.3849818,39.3978752 C48.5975004,39.4079243 47.810019,39.3997362 47.0225376,39.3997362 M70.8493595,25.0318752 C72.963512,25.0318752 75.0780317,25.015499 77.1921842,25.0426686 C77.7872028,25.0501123 77.9330191,24.911287 77.8151173,24.280432 C77.32992,21.6702929 77.3082496,21.6379128 74.429388,21.6591274 C73.9636574,21.662477 73.3308074,21.9557594 73.370108,20.9679783 C73.3983897,20.2530094 73.5177608,19.8752408 74.2978963,20.0371416 C74.3886182,20.0561231 74.4866861,20.0401191 74.5814483,20.0404913 C78.1644152,20.05389 78.6040679,20.3791804 79.6493907,23.851674 C80.1639716,25.5618678 80.6679009,27.2754112 81.1508944,28.9949097 C81.3044239,29.542395 81.5207609,29.7195554 82.1436939,29.6477236 C86.3499612,29.1612767 90.2715745,32.3602138 90.9194836,36.7456792 C91.5332343,40.8992728 88.5658545,45.1273036 84.484835,45.9144766 C80.4240167,46.6979277 76.5923908,44.5362725 75.1610405,40.6547467 C73.7693581,36.881527 75.3450555,32.6765717 78.9232476,30.6135458 C79.5303869,30.2633189 79.6607768,29.3302491 79.1502362,28.8136552 C78.7877156,28.4470522 78.6679773,28.9160063 78.5166516,29.075674 C76.2015885,31.5235401 73.8927694,33.9877823 71.8414244,36.6619374 C70.3307383,38.6308003 68.6577076,39.6051827 66.0730497,39.4801283 C61.7918542,39.2720764 57.4922939,39.4663574 53.2008141,39.4778952 C52.6866005,39.4793839 52.3439138,39.4957601 52.2238082,40.176488 C51.5758991,43.842146 48.3088062,46.7980457 44.7783626,46.9874883 C40.8681354,47.1970289 37.4453093,44.7573509 36.3313023,40.9662663 C35.0406261,36.5733571 37.6469545,31.7885364 41.9623085,30.6284332 C46.5678259,29.3905432 51.2192552,32.186403 52.1760598,36.8245826 C52.306817,37.4587872 52.5360093,37.5983569 53.095033,37.5719317 C54.1638627,37.5216866 55.4071577,37.8503267 56.2556102,37.3992374 C57.0735771,36.9641522 57.2010286,35.6060462 57.6311315,34.6547393 C58.9960014,31.635568 60.3245089,28.5996483 61.6706467,25.5719168 C62.2561156,24.2551234 61.7396982,23.3093992 60.355729,23.3153542 C59.6387684,23.3183317 59.6413394,22.9550783 59.6156287,22.4224805 C59.5869797,21.8295885 59.7798098,21.6505671 60.3627077,21.6609883 C62.2557483,21.6937406 64.1495235,21.6710373 66.0432988,21.6747592 C66.3775376,21.6755035 66.7925814,21.5798518 66.8215978,22.1157993 C66.8473085,22.5974078 66.4399778,22.6684953 66.1211654,22.7477709 C65.479133,22.9078108 64.8132264,22.9770373 64.1785399,23.1590362 C63.8795614,23.2442667 63.2378963,23.1173514 63.4046484,23.7001943 C63.5545049,24.224232 63.4329301,25.0549507 64.4114052,25.0411798 C66.5567778,25.0114049 68.7032523,25.0318752 70.8493595,25.0318752" id="Fill-1" fill="#F0EEEA"></path>
                <path d="M46.4884726,14.1921157 C46.6053534,14.1716549 46.7225853,14.151194 46.8398171,14.1307331 C46.8398171,11.8366005 46.8412211,9.54282682 46.8384132,7.24905318 C46.8380622,6.88542365 46.6955588,6.7296337 46.3333334,6.9159355 C45.5288561,7.33017882 44.7219219,7.73831976 43.9156896,8.14825552 C43.6615703,8.27712324 43.5555702,8.45337408 43.7022855,8.73982656 C44.6327695,10.5561794 45.5600945,12.3743271 46.4884726,14.1921157 Z M48.1700828,14.2721645 C48.2318577,14.2606777 48.3178511,14.2700107 48.3364537,14.2377041 C49.7316532,11.8628048 51.1201838,9.48323896 52.5136283,7.10690382 C52.7438801,6.71383933 52.6234893,6.5490753 52.200893,6.52789649 C51.0285745,6.47010344 49.8562559,6.40225943 48.6835864,6.34482535 C48.1132218,6.31682624 48.1855265,6.7490177 48.1788576,7.11228827 C48.1391954,9.26822012 48.0991821,11.423793 48.0682947,13.5793659 C48.0651357,13.8105381 47.9570297,14.0700683 48.1700828,14.2721645 Z M43.1048945,11.084214 C42.9841527,12.6345752 42.8363844,14.1835006 42.7560068,15.7360157 C42.7209075,16.4101482 42.5513776,16.596809 41.8939666,16.3397914 C41.1656549,16.0551338 40.398032,15.8738575 39.6412898,15.6714023 C39.1702564,15.5450473 38.9673822,15.3318233 39.0042365,14.7707641 C39.2025479,11.7597824 39.358038,8.74556997 39.5103692,5.73135756 C39.5307269,5.32716521 39.6581375,5.03568725 39.9670119,4.78656692 C41.8364037,3.28179397 43.7015835,1.77127762 45.5576376,0.249633412 C45.8156179,0.0382041985 46.0714922,-0.0167171423 46.3880884,0.00410271237 C50.0840508,0.247479634 53.7796622,0.49372826 57.4777305,0.705516437 C58.1491812,0.743925479 58.0828434,0.944944766 57.7816909,1.39544335 C54.3588016,6.50492285 51.3037535,11.8484462 48.2192219,17.1725856 C48.0072218,17.53801 47.8383939,17.9989185 47.3340161,17.9999954 C46.7696184,18.0017902 46.6408038,17.4805759 46.4354725,17.081409 C45.4010945,15.0697803 44.3730343,13.054562 43.3428681,11.0404205 L43.1048945,11.084214 Z" id="Fill-3" fill="#FFC942"></path>
                <path d="M39.2632173,17 C39.8288536,17.165666 40.3154863,17.3118418 40.8039736,17.4507991 C42.8780971,18.0412773 44.9455443,18.6566596 47.031537,19.206353 C47.9198642,19.4405952 48.3890642,19.958166 48.5437333,20.7973236 C48.6334933,21.2845765 48.6946933,21.7765213 48.7688751,22.2663007 C49.2421551,25.383275 51.2547077,27.4080811 53.8573767,28.9889458 C54.7182567,29.5119305 55.6273548,29.9703091 56.5494348,30.3832108 C57.1543875,30.6535459 57.0453402,30.9632221 56.8253911,31.4111338 C56.618053,31.8326977 56.5101184,32.1759402 55.8695584,31.9016349 C50.633435,29.6559408 45.3835879,27.4394819 40.1337409,25.2237448 C39.6994063,25.0403934 39.5317554,24.7751113 39.5039373,24.3084314 C39.3741191,22.1132672 39.1983082,19.9206295 39.0532827,17.7261872 C39.0362209,17.4674018 38.8589264,17.1050301 39.2632173,17" id="Fill-5" fill="#FFC942"></path>
                <path d="M121.272561,56.0110917 C122.954552,56.0110917 124.636912,56.03043 126.318164,56.0004556 C126.861326,55.9907864 127.001831,56.1332456 126.999982,56.5986553 C126.995175,57.8398552 127.022907,57.8398552 125.640783,57.8398552 C122.689441,57.8398552 119.7381,57.8382436 116.786389,57.8421113 C116.490219,57.8424336 116.129713,57.7483203 116.143764,58.2163084 C116.155966,58.6401406 116.456942,58.6243476 116.78528,58.6198354 C116.943902,58.6179015 117.102894,58.619513 117.261147,58.619513 C119.482973,58.619513 121.704428,58.6182238 123.926254,58.6208023 C124.242759,58.6211246 124.561114,58.6243476 124.875771,58.6507767 C126.4424,58.7825998 127.008856,59.4040055 126.985932,60.9536521 C126.968553,62.1436054 126.140684,62.9622623 124.770392,62.9764437 C121.374981,63.0122197 117.978831,62.9816006 114.583051,62.9999721 C114.110141,63.0022282 113.967048,62.868149 114.014746,62.4807373 C114.045065,62.2348179 114.05209,61.979874 114.013636,61.7352438 C113.937468,61.2475951 114.182242,61.1489695 114.701371,61.1521925 C117.779536,61.1721755 120.858071,61.1657294 123.936607,61.1560602 C124.198389,61.1550933 124.590324,61.3023871 124.703098,61.0161795 C124.860241,60.6181317 124.716778,60.364477 124.107431,60.3712454 C121.664126,60.3983191 119.220081,60.3854269 116.776406,60.3799477 C116.365983,60.3789808 115.947057,60.38027 115.547728,60.3112965 C114.58416,60.1449867 114.032494,59.5313163 114.020662,58.6791396 C113.991082,56.5525655 114.611522,56.0117363 117.083298,56.011414 C118.479472,56.0110917 119.876016,56.011414 121.272561,56.0110917" id="Fill-7" fill="#FEFDFC"></path>
                <path d="M71.6614776,60.4056673 C72.4412037,61.2757859 73.1322493,62.0471949 73.892105,62.8955204 C72.6251881,63.0006397 71.4182501,63.2538234 70.66281,62.0622577 C69.7524549,60.6261614 68.3758832,60.1008854 66.509545,60.3505438 C65.644818,60.4662391 64.7425583,60.3906045 63.859065,60.3627222 C63.372978,60.3470184 63.1617639,60.4723283 63.2066561,60.916201 C63.2423491,61.2709786 63.1639717,61.6376142 63.2239506,61.987905 C63.3567874,62.7609164 63.0752912,63.0006397 62.1303471,62.9999987 C61.1876107,62.9993577 60.947695,62.7638008 61.0260724,61.987905 C61.1081294,61.1687437 61.0937787,60.3351605 61.0293841,59.5134352 C60.9763966,58.8291983 61.1360951,58.5708869 62.0320994,58.590757 C64.9059365,58.6532517 67.7827174,58.6135115 70.6580264,58.6135115 C70.816253,58.6135115 70.9744796,58.6106271 71.1323383,58.6141525 C71.4624064,58.6215236 71.7564135,58.6327406 71.7681885,58.211943 C71.7810675,57.7424315 71.4171462,57.8443459 71.1260828,57.8440254 C68.1558378,57.8395386 65.1852249,57.8485122 62.2149799,57.8324879 C61.8330282,57.8302445 61.2446459,58.0440085 61.1026099,57.6712836 C60.9326083,57.2251676 61.0106177,56.6880336 61.0757482,56.199934 C61.1162248,55.8996389 61.4911851,56.0268717 61.7174859,56.0262308 C64.9721709,56.0185391 68.2272238,56.0111679 71.4819087,56.0259103 C72.9398015,56.03232 73.868555,56.7248895 73.9734262,57.819348 C74.1320208,59.4762589 73.608033,60.111141 71.6614776,60.4056673" id="Fill-9" fill="#FAF8F6"></path>
                <path d="M87.5984858,62.9885976 C85.9463635,62.9885976 84.2938714,62.9702059 82.6428588,62.9995681 C82.1346842,63.0086027 81.9952505,62.8776019 82.0085651,62.4445894 C82.0414818,61.3646396 82.0444406,60.2824311 82.0081953,59.2028038 C81.9926616,58.7417198 82.1280269,58.5368294 82.6839122,58.606847 C82.9328216,58.6384679 83.1957853,58.6378226 83.4450645,58.606847 C84.0545782,58.5316668 84.2028882,58.7649515 84.17367,59.2641096 C84.1385342,59.8645837 83.9406642,60.67866 84.294981,61.0193912 C84.7195694,61.428204 85.6682359,61.1432934 86.3883349,61.1520053 C88.0082801,61.171365 89.6285952,61.1668477 91.2489103,61.1549092 C92.4671979,61.14652 92.7468049,60.8867771 92.7534622,59.8236056 C92.7660371,57.8998945 92.6879986,57.8321355 90.470375,57.8321355 C87.9287623,57.8321355 85.3871496,57.8118078 82.8459067,57.8460099 C82.1971889,57.8543992 81.976758,57.728561 82.0019078,57.1322815 C82.0499884,56.0029643 82.0067159,56.0016737 83.3030419,56.0016737 C86.2574078,56.0016737 89.2121435,55.9971564 92.1668793,56.0029643 C94.1611132,56.0065136 94.9977151,56.7425058 94.9984548,58.4710063 C94.9988246,59.2470085 95.0021533,60.0233334 94.9977151,60.799013 C94.9892085,62.214854 94.1134025,62.9760138 92.4590612,62.986339 C90.8391159,62.9963415 89.218431,62.9885976 87.5984858,62.9885976" id="Fill-11" fill="#FEFDFC"></path>
                <path d="M42.5158814,61.1638445 L44.6176756,61.1638445 C46.7695567,61.1632002 46.8600841,61.0829908 46.8393073,59.1914662 C46.8278059,58.1445563 46.5161541,57.8572198 45.3200051,57.8485224 C43.7595202,57.8369259 42.1990354,57.8453012 40.6385506,57.8453012 C38.2187974,57.8453012 38.0985889,57.9731852 38.1735337,60.0402686 C38.2017308,60.8140155 38.6180085,61.1525701 39.4587262,61.1603011 C40.4775306,61.1696427 41.496706,61.162556 42.5158814,61.1638445 M42.5073481,62.9931987 C41.1716977,62.9935209 39.8360474,63.006728 38.5007681,62.9899775 C36.8111704,62.9690393 36.0005048,62.242967 36.0001338,60.7853463 C35.9997628,59.9294572 36.0001338,59.0735681 36.0016179,58.217679 C36.003844,56.8805334 36.8145095,56.0616888 38.3549596,56.0352745 C41.1201268,55.9875998 43.8882621,55.9888883 46.6538003,56.0352745 C48.2072359,56.0613667 48.9915594,56.8541191 48.9971246,58.2173568 C49.0008348,59.1009488 49.0012058,59.9845407 48.9967536,60.8678106 C48.9904464,62.2126871 48.1664243,62.960664 46.6096497,62.9877226 C45.2428342,63.011882 43.8749056,62.9928766 42.5073481,62.9931987" id="Fill-13" fill="#FFC942"></path>
                <path d="M24.4745929,61.1638383 C25.4302488,61.1638383 26.3855339,61.1718922 27.340819,61.1615832 C28.5141582,61.1493413 28.81936,60.8838845 28.8393853,59.8893881 C28.8445771,59.6403613 28.8438354,59.3913345 28.8393853,59.1423077 C28.8212142,58.1507107 28.5015497,57.8575485 27.3556526,57.8488503 C25.6675867,57.8353197 23.9795209,57.8449844 22.291455,57.8449844 C20.310796,57.8453066 20.1276008,58.0096063 20.1580097,59.7553711 C20.1602348,59.8658707 20.1609765,59.9763703 20.1635724,60.0871921 C20.1791477,60.7994796 20.613031,61.1525629 21.4170132,61.1599725 C22.4360828,61.1696372 23.4551524,61.1622276 24.4745929,61.1638383 M24.4935058,62.993686 C23.1900015,62.993686 21.8864972,63.002062 20.5829929,62.9914309 C18.8177923,62.977256 18.0037974,62.2714116 18.0012015,60.7740292 C18.000089,59.9177379 17.9993473,59.0617686 18.0008307,58.2051551 C18.0030557,56.9026773 18.778854,56.07538 20.2755662,56.0434865 C23.1032248,55.9832433 25.9349627,55.986787 28.7626214,56.0467081 C30.2244745,56.0776351 30.9887768,56.8810928 30.9961936,58.1458784 C31.0017562,59.0575806 31.0006436,59.9689607 30.9965644,60.8803408 C30.9913726,62.2150343 30.1569816,62.962759 28.5950015,62.9885315 C27.2284543,63.0110824 25.8607946,62.9933638 24.4935058,62.993686" id="Fill-15" fill="#FFC942"></path>
                <path d="M16,56.0363951 C14.4277477,58.3471106 12.9523141,60.5354019 11.4488172,62.7073913 C11.1474864,63.1430678 10.0968626,63.0701887 9.7660652,62.6124567 C9.18760825,61.8130239 8.63651312,60.9976089 8.01175155,60.0987665 C7.41294863,60.9643658 6.86711539,61.767954 6.3047949,62.5619528 C5.94593409,63.0685905 4.89987065,63.1676805 4.5666177,62.6901305 C3.05505251,60.5242143 1.57576023,58.3387998 0,56.0363951 C0.64791388,56.0363951 1.14849488,56.0658025 1.64276161,56.028404 C2.15526956,55.9894073 2.45449563,56.1524263 2.72320274,56.5644491 C3.55037162,57.833121 4.4343689,59.0707874 5.33134551,60.3714239 C5.93365635,59.8420914 6.23533797,59.1794668 6.68049374,58.6120965 C6.8853566,58.3506267 6.69627941,58.1518073 6.55561158,57.9437183 C6.15149854,57.3443834 5.74878867,56.7444093 5.27381553,56.0376737 C6.0308259,56.0376737 6.65313192,56.0504595 7.27473636,56.032879 C7.71357786,56.0207325 7.8061871,56.3486885 7.97316437,56.5874635 C8.84137598,57.8283263 9.69485431,59.0784589 10.6367324,60.4455816 C11.4568854,59.2507477 12.2886146,58.1831326 12.9459999,57.0324097 C13.422727,56.1984552 14.043279,55.8963905 15.0142729,56.0306415 C15.2773673,56.0674007 15.5516871,56.0363951 16,56.0363951" id="Fill-17" fill="#FFC942"></path>
                <path d="M103.454265,62.9727049 C101.519748,62.9727049 99.584492,62.9591916 97.6499751,62.9818355 C97.1768797,62.9876791 96.9846846,62.8908947 97.0009473,62.3719115 C97.0404951,61.1199239 97.0393863,59.8642841 97.0016865,58.6119312 C96.986163,58.096235 97.1754012,58.0071204 97.6496055,58.0093117 C101.519379,58.0275729 105.388782,58.0483907 109.257816,58.0001811 C110.301583,57.9873983 109.912018,58.653932 109.973373,59.1276274 C110.043967,59.6732719 110.014768,60.0487221 109.227878,60.0366697 C106.152388,59.9884602 103.075419,60.0140259 99.9984505,60.0213303 C99.7275295,60.0220608 99.3934058,59.896789 99.2067549,60.1728983 C99.116571,60.3065702 99.1132446,60.5538268 99.1690551,60.7167167 C99.2810456,61.0421312 99.5992762,60.8927546 99.8221486,60.8934851 C102.898747,60.9040766 105.976825,60.9577645 109.050836,60.8682846 C110.070579,60.8387015 109.959328,61.325545 109.992962,61.9749131 C110.029183,62.6757778 109.954523,63.0358886 109.067469,62.9971749 C107.199481,62.9164604 105.325579,62.9727049 103.454265,62.9727049" id="Fill-19" fill="#FEFDFC"></path>
                <path d="M103.514393,56.0121885 C105.450056,56.0121885 107.386089,56.0306472 109.321014,56.0003471 C109.870998,55.9912919 110.001102,56.1581168 109.999993,56.6547606 C109.996297,57.9876187 110.022539,57.987967 108.626511,57.987967 C105.040895,57.987967 101.455278,57.975429 97.8700318,57.9998084 C97.2616487,58.0039878 96.9692848,57.9454771 97.00255,57.2544945 C97.0613185,56.0142782 97.0088334,56.0121885 98.374184,56.0121885 L103.514393,56.0121885 Z" id="Fill-21" fill="#FEFDFC"></path>
                <path d="M79.9612681,60.553032 C79.9616014,60.958512 79.9159379,61.3716357 79.9706007,61.7683801 C80.101925,62.7227505 79.802279,63.0416019 78.8900087,62.9957397 C78.1943901,62.9607971 77.9564065,62.8181147 78.006403,62.0228061 C78.0763982,60.9050061 78.0384008,59.7777425 78.0167357,58.6548468 C78.0080696,58.2045965 78.0777315,57.938887 78.5676976,58.0120481 C78.8483449,58.0535425 79.1399914,58.040803 79.4236385,58.014596 C79.8212777,57.9789254 79.9925992,58.1208798 79.9692675,58.5882374 C79.9372697,59.2412277 79.9612681,59.8978578 79.9612681,60.553032" id="Fill-23" fill="#FAF8F6"></path>
                <path d="M79.0027032,57.9223344 C78.1907488,58.1691206 78.0275586,57.816714 78.0019144,57.0225298 C77.9739389,56.1508228 78.249364,56.008303 79.0396707,56.0001783 C79.8519582,55.9920537 79.9938338,56.2605056 79.9998285,57.0140666 C80.0064893,57.8119746 79.8216515,58.1687821 79.0027032,57.9223344" id="Fill-25" fill="#FAF8F6"></path>
            </g>
        </g>
    </g>
</svg>