<?xml version="1.0" encoding="UTF-8" standalone="no"?>
<svg width="96px" height="82px" viewBox="0 0 96 82" version="1.1" xmlns="http://www.w3.org/2000/svg" xmlns:xlink="http://www.w3.org/1999/xlink">
    <!-- Generator: Sketch 49.1 (51147) - http://www.bohemiancoding.com/sketch -->
    <title>WRlogovector (1)</title>
    <desc>Created with Sketch.</desc>
    <defs></defs>
    <g id="FINAL" stroke="none" stroke-width="1" fill="none" fill-rule="evenodd">
        <g id="WooRides-Website-V2000-Copy" transform="translate(-150.000000, -751.000000)">
            <g id="WRlogovector-(1)" transform="translate(150.000000, 751.000000)">
                <path d="M47.0347607,48.1790207 C46.5334224,48.2049358 46.5097018,48.4563129 46.4263592,48.6435499 C44.0831479,53.9108062 41.7598106,59.1871328 39.3871088,64.4401358 C38.9050035,65.5071925 38.999886,65.8939762 40.2731056,65.8862017 C44.2338058,65.8609344 48.1964293,65.8751877 52.1552062,65.9924538 C53.6726839,66.0371575 53.6175496,65.504601 53.1681402,64.3604466 C51.7711888,60.7997036 50.4524513,57.2085103 49.1016589,53.6296267 C48.4073504,51.7909461 47.7085541,49.954857 47.0347607,48.1790207 M73.4749028,46.5800553 C73.3466833,46.5347038 73.2069241,46.4414092 73.0665237,46.4407613 C65.6977493,46.4174377 58.329616,46.415494 50.9608416,46.3733819 C49.6587726,46.3662552 50.0126584,46.9946978 50.2870482,47.7391108 C52.2834257,53.1443653 54.2746745,58.5509156 56.2332273,63.9697756 C56.6217323,65.0471984 56.8999686,65.2875615 57.7891708,64.294363 C62.7717804,58.7342654 67.8178587,53.2331248 72.831241,47.7015338 C73.1062718,47.3983265 73.5774784,47.1832306 73.4749028,46.5800553 M70.8553785,65.1566899 C70.8970499,72.1246286 75.7027166,77.0245375 81.6514601,77.0828466 C87.5553267,77.13986 92.5257555,72.2224583 92.6174324,66.2354085 C92.7097504,60.1531204 87.8874152,55.1638042 81.8476359,55.0245102 C80.5404381,54.9947078 80.0583328,55.2434933 80.5641587,56.6902071 C81.4796459,59.3056947 82.2540917,61.9736604 83.0298196,64.637091 C83.3375464,65.6950774 83.4433275,66.8794002 82.0906118,67.2616488 C80.7346907,67.6451932 80.4596598,66.4310679 80.1570618,65.5110797 C79.2723473,62.8236776 78.4004547,60.1304446 77.6221624,57.4106486 C77.2657122,56.1634815 76.8009165,56.101933 75.8187552,56.7990508 C72.6216021,59.0672752 70.897691,62.1051798 70.8553785,65.1566899 M19.2393384,68.7699111 L19.2393384,68.9027263 C17.7545567,68.9027263 16.2691338,68.8709802 14.7856342,68.9130924 C13.6444807,68.9454863 12.541152,68.813319 12.5155081,67.4041822 C12.4898642,65.9911581 13.5111325,65.606318 14.7753767,65.6147404 C17.7442991,65.632881 20.7151448,65.5570792 23.6834261,65.616684 C24.9406183,65.6419513 25.2291122,65.2758997 24.7963714,64.0805629 C23.2231182,59.7294075 20.2503491,56.9979496 15.6882995,56.4200416 C11.061499,55.8337111 7.33544046,57.6678565 4.91978517,61.6905373 C2.53554365,65.659444 2.675944,69.7812502 5.25507915,73.6264121 C7.67265774,77.2312109 11.206387,78.9040345 15.4799428,78.4207167 C20.084946,77.899822 23.2737649,75.3251509 24.8168865,70.8411803 C25.4746525,68.931233 25.306685,68.7427002 23.3628774,68.7666717 C21.9883644,68.7841645 20.6138514,68.7699111 19.2393384,68.7699111 M60.8279729,43.7591901 C64.51813,43.7591901 68.2089281,43.7306834 71.8990852,43.7779786 C72.9376631,43.7909362 73.1921788,43.5492773 72.9863865,42.4511224 C72.1394968,37.907547 72.101672,37.8511815 67.07675,37.8881106 C66.2638384,37.8939415 65.1592274,38.4044702 65.2278249,36.6849993 C65.2771894,35.4404237 65.4855461,34.7828265 66.8472371,35.0646539 C67.0055882,35.0976957 67.1767612,35.0698369 67.3421644,35.0704848 C73.5960702,35.0938084 74.3634639,35.6600547 76.1880273,41.7047658 C77.0862049,44.6817698 77.9657907,47.6646047 78.8088338,50.6578057 C79.0768126,51.6108357 79.454419,51.9192261 80.5417203,51.7941855 C87.8835686,50.9474076 94.7285664,56.5159277 95.8594623,64.149886 C96.9307362,71.3802156 91.7513097,78.7401211 84.6280756,80.1103852 C77.5401019,81.4741705 70.852173,77.7112892 68.3538162,70.9545591 C65.9246978,64.3863618 68.675006,57.0666248 74.9205776,53.4754315 C75.9803118,52.8657774 76.2079014,51.2415447 75.3167759,50.3422887 C74.6840127,49.7041278 74.4750149,50.5204554 74.2108827,50.7983955 C70.1700453,55.0594957 66.1401066,59.3491025 62.5595772,64.0041132 C59.9227432,67.4313931 57.0025442,69.1275403 52.4911413,68.909853 C45.0185091,68.5476886 37.513822,68.8858815 30.0232391,68.9059657 C29.1257026,68.9085572 28.5275587,68.9370639 28.3179198,70.1220346 C27.1870239,76.5029949 21.4844618,81.6484499 15.3222328,81.9782204 C8.49710909,82.3429762 2.5227217,78.0961294 0.578273051,71.4968338 C-1.67454349,63.849918 2.87468422,55.5207855 10.4069385,53.5013467 C18.4456597,51.3465011 26.5645182,56.2133682 28.2345771,64.2872363 C28.4628078,65.3912221 28.8628527,65.6341768 29.838603,65.5881773 C31.7041967,65.5007137 33.8743116,66.0727908 35.3552468,65.2875615 C36.7829709,64.5301909 37.0054317,62.1660805 37.7561569,60.5101017 C40.1384751,55.2545073 42.4573247,49.9697582 44.8069469,44.6992625 C45.8288563,42.4070666 44.9274733,40.7608061 42.511818,40.7711721 C41.2603957,40.7763552 41.2648834,40.1440253 41.2200065,39.2169104 C41.1700009,38.1848392 41.5065771,37.8732094 42.5239988,37.89135 C45.8282152,37.9483633 49.1337138,37.9088427 52.4392124,37.9153215 C53.0226111,37.9166173 53.7470512,37.7501124 53.7976979,38.6830581 C53.8425748,39.5214136 53.1315977,39.6451584 52.5751251,39.7831567 C51.4544867,40.0617446 50.2921769,40.1822501 49.1843605,40.499063 C48.6625072,40.6474273 47.5425099,40.4265005 47.8335681,41.441079 C48.0951359,42.3532927 47.8829326,43.7993586 49.5908163,43.7753871 C53.3354667,43.7235568 57.0820403,43.7591901 60.8279729,43.7591901" id="Fill-1" fill="#03193B"></path>
                <path d="M18.0062944,24.4419771 C18.209298,24.4067389 18.4129113,24.3715007 18.6165245,24.3362625 C18.6165245,20.3852564 18.618963,16.4348684 18.614086,12.4844805 C18.6134764,11.8582296 18.3659705,11.5899247 17.7368422,11.9107778 C16.3395922,12.6241969 14.9380748,13.3271063 13.5377767,14.0331067 C13.0964115,14.2550456 12.9123062,14.5585887 13.1671275,15.0519235 C14.7832313,18.1800868 16.3938484,21.311341 18.0062944,24.4419771 Z M20.9269859,24.5798389 C21.0342791,24.560056 21.1836361,24.5761296 21.215946,24.5204903 C23.6391872,20.430386 26.0508456,16.3322449 28.4710387,12.2396677 C28.8709497,11.5627233 28.6618499,11.278963 27.9278669,11.2424884 C25.8917347,11.1429559 23.8556024,11.0261135 21.8188606,10.9271992 C20.8282274,10.8789785 20.9538092,11.6233083 20.9422264,12.2489409 C20.8733393,15.9619346 20.8038426,19.6743102 20.750196,23.3866857 C20.7447094,23.7848156 20.5569463,24.2317843 20.9269859,24.5798389 Z M12.1295535,19.0894797 C11.9198441,21.7595462 11.6631939,24.42714 11.5235908,27.1009159 C11.4626288,28.2619219 11.1681821,28.5833932 10.0263631,28.1407519 C8.76140069,27.6505082 7.42816082,27.3383101 6.11381918,26.9896373 C5.29570857,26.772026 4.94334796,26.4048068 5.0073581,25.4385382 C5.35179365,20.2529585 5.62185549,15.061815 5.88643076,9.87067136 C5.92178874,9.17456231 6.14308096,8.67257248 6.67954693,8.24353191 C9.92638532,5.65197851 13.1659083,3.05053368 16.3895811,0.42992421 C16.8376521,0.0657961196 17.2820654,-0.028790634 17.831943,0.00706578242 C24.2512461,0.426214926 30.6699395,0.850309782 37.0929004,1.21505609 C38.2591042,1.28120499 38.143886,1.62740487 37.6208316,2.40326354 C31.6758133,11.2029227 26.3696771,20.4056574 21.0123328,29.5750086 C20.644122,30.2043505 20.3508946,30.9981374 19.47487,30.999992 C18.4946004,31.0030831 18.2708697,30.1054363 17.9142418,29.4179822 C16.1176904,25.9535105 14.3321121,22.4828567 12.5428762,19.0140575 L12.1295535,19.0894797 Z" id="Fill-3" fill="#FFC02F"></path>
                <path d="M5.45331862,30 C6.42747009,30.2871543 7.26555976,30.5405258 8.10684336,30.7813851 C11.678945,31.8048807 15.2395485,32.8715433 18.8320914,33.8243451 C20.3619883,34.2303651 21.170055,35.1274877 21.4364295,36.5820276 C21.5910162,37.4265992 21.6964162,38.2793037 21.8241737,39.1282545 C22.639267,44.53101 26.1053299,48.040674 30.5877043,50.7808395 C32.0703309,51.6873463 33.636,52.4818691 35.2240266,53.1975653 C36.2658896,53.6661461 36.0780859,54.2029183 35.6992847,54.9792985 C35.3422023,55.7100093 35.156315,56.304963 34.0531284,55.8295005 C25.0353603,51.9369641 15.993957,48.0951019 6.95255371,44.254491 C6.20453313,43.9366818 5.91580102,43.4768596 5.86789193,42.6679477 C5.64431619,38.8629964 5.34153074,35.0624245 5.09176469,31.2587244 C5.06238045,30.8101631 4.75703986,30.1820521 5.45331862,30" id="Fill-5" fill="#FFC02F"></path>
            </g>
        </g>
    </g>
</svg>